# This file uses centimeters as units for non-parametric coordinates.

mtllib Rock1_LP_OBJ.mtl
g default
v -1.554688 0.883950 -0.190289
v -1.057648 1.427223 -0.297610
v 0.617953 0.159451 2.225872
v -0.094767 1.761581 0.764042
v 0.587690 0.303081 0.045124
v 0.558082 1.304583 -0.960921
v -0.242849 1.615351 0.958776
v -1.355502 0.556344 0.395188
v -0.659294 1.262077 -1.022610
v -1.450435 0.520979 -1.146381
v 1.276232 0.572982 -1.002721
v 1.335804 1.067973 0.832798
v -0.317090 0.335263 1.763594
v 0.517510 1.122164 1.999079
v 1.195027 0.118099 1.583855
v 0.106641 0.011835 0.939505
v 0.523060 1.496823 -0.482105
v -1.353872 0.294608 -0.512201
v 1.169190 1.086297 1.538440
v 0.170500 1.318650 -1.243751
v -0.142026 0.216200 -0.115337
v -0.520743 1.750295 0.030624
v 0.622323 0.352349 -1.193696
v -0.957155 1.263011 0.656250
v 0.775260 0.507089 -1.380695
v -1.476680 0.945489 1.651095
v 1.148752 0.881058 -1.280159
v -0.923245 0.745826 2.050226
v -0.689581 0.542582 -1.314160
v 1.432414 0.704838 0.715880
v -1.166011 0.286707 -1.103368
v 0.690259 1.470694 0.443608
v 0.791835 0.143635 0.467657
v -1.085764 1.085565 -0.968579
v 0.953390 0.342543 -0.528579
v -0.621770 1.318123 1.603010
v -0.983940 0.153403 -0.474338
v 0.848579 1.563013 1.184824
v -0.608048 1.139761 -1.267077
v 0.253642 1.568207 1.217921
v -1.090828 0.433425 0.485238
v 0.563079 0.948821 -1.358253
v 0.393270 1.642094 0.472473
v -1.290023 1.155070 -0.706642
v 0.952992 0.209729 0.032471
v 0.527566 1.523336 1.642869
v -1.561447 0.861600 -0.657253
v 0.180403 0.236737 -0.946132
v -1.430525 1.011760 0.480276
v 1.168833 0.757758 1.894962
v -0.525551 0.251179 -1.256665
v 1.258206 1.456714 -0.846239
v 0.031076 1.314743 1.679220
v -1.118919 0.145253 1.710099
v 1.438277 1.104441 -0.573804
v -1.351730 0.221862 1.416412
v 1.370246 1.247788 0.016990
vn -0.158876 0.230951 -0.959906
vn 0.122312 -0.311067 -0.942484
vn -0.176247 0.033315 -0.983782
vn -0.093130 0.980722 -0.171787
vn -0.403727 0.871072 0.279709
vn 0.049758 0.991572 0.119617
vn 0.266574 0.963054 -0.038283
vn 0.182760 0.975934 -0.118961
vn -0.093130 0.980722 -0.171787
vn 0.028463 0.456019 0.889515
vn -0.222849 0.109604 0.968672
vn 0.013748 -0.601946 0.798419
vn 0.934592 -0.355539 0.011382
vn 0.764355 0.182288 0.618492
vn 0.560564 -0.822687 0.094628
vn -0.082019 -0.996268 -0.026882
vn 0.364558 -0.916266 -0.165996
vn 0.560564 -0.822687 0.094628
vn 0.097728 0.343133 -0.934189
vn -0.038361 0.888589 -0.457097
vn 0.110541 0.784029 -0.610803
vn 0.560564 -0.822687 0.094628
vn 0.364558 -0.916266 -0.165996
vn 0.934592 -0.355539 0.011382
vn -0.977775 0.199568 0.064260
vn -0.827943 0.555452 0.077347
vn -0.479410 0.872739 -0.092160
vn -0.101551 -0.992909 0.061806
vn -0.000350 -0.999891 -0.014758
vn -0.231089 -0.969718 -0.079028
vn -0.827943 0.555452 0.077347
vn -0.977775 0.199568 0.064260
vn -0.881125 -0.470883 0.043447
vn -0.222849 0.109604 0.968672
vn -0.129508 -0.878268 0.460297
vn 0.013748 -0.601946 0.798419
vn -0.248476 0.891206 -0.379490
vn -0.445497 0.573482 -0.687496
vn -0.479410 0.872739 -0.092160
vn -0.038361 0.888589 -0.457097
vn -0.093130 0.980722 -0.171787
vn 0.182760 0.975934 -0.118961
vn -0.445497 0.573482 -0.687496
vn -0.158876 0.230951 -0.959906
vn -0.176247 0.033315 -0.983782
vn -0.977775 0.199568 0.064260
vn -0.777447 -0.626558 0.054779
vn -0.881125 -0.470883 0.043447
vn 0.438407 -0.891206 -0.116409
vn 0.807249 -0.559578 -0.187675
vn 0.934592 -0.355539 0.011382
vn 0.122312 -0.311067 -0.942484
vn 0.163228 -0.977170 -0.135997
vn -0.014850 -0.874856 -0.484155
vn 0.390342 0.920533 -0.015903
vn 0.535838 0.842096 0.061260
vn 0.738542 0.669117 0.082692
vn 0.990046 0.026097 -0.138306
vn 0.934592 -0.355539 0.011382
vn 0.807249 -0.559578 -0.187675
vn -0.854495 0.425475 0.298009
vn -0.881125 -0.470883 0.043447
vn -0.826821 -0.561823 -0.026882
vn -0.231089 -0.969718 -0.079028
vn -0.000350 -0.999891 -0.014758
vn -0.082019 -0.996268 -0.026882
vn -0.278196 0.852821 0.441931
vn 0.028463 0.456019 0.889515
vn -0.148490 0.862483 0.483811
vn 0.787725 0.516531 0.335686
vn 0.738542 0.669117 0.082692
vn 0.535838 0.842096 0.061260
vn 0.013748 -0.601946 0.798419
vn 0.560564 -0.822687 0.094628
vn 0.764355 0.182288 0.618492
vn 0.013748 -0.601946 0.798419
vn -0.082019 -0.996268 -0.026882
vn 0.560564 -0.822687 0.094628
vn -0.241925 -0.928284 0.282421
vn -0.231089 -0.969718 -0.079028
vn -0.082019 -0.996268 -0.026882
vn -0.129508 -0.878268 0.460297
vn -0.082019 -0.996268 -0.026882
vn 0.013748 -0.601946 0.798419
vn 0.110541 0.784029 -0.610803
vn -0.038361 0.888589 -0.457097
vn 0.182760 0.975934 -0.118961
vn 0.738542 0.669117 0.082692
vn 0.577457 0.808149 0.115922
vn 0.390342 0.920533 -0.015903
vn -0.777447 -0.626558 0.054779
vn -0.958314 0.160789 -0.236182
vn -0.703179 0.017424 -0.710799
vn -0.014850 -0.874856 -0.484155
vn 0.095104 -0.993509 -0.062407
vn -0.101551 -0.992909 0.061806
vn 0.764355 0.182288 0.618492
vn 0.239341 0.883098 0.403551
vn 0.028463 0.456019 0.889515
vn 0.013748 -0.601946 0.798419
vn 0.764355 0.182288 0.618492
vn 0.028463 0.456019 0.889515
vn -0.248476 0.891206 -0.379490
vn -0.479410 0.872739 -0.092160
vn -0.038361 0.888589 -0.457097
vn 0.097728 0.343133 -0.934189
vn -0.158876 0.230951 -0.959906
vn -0.038361 0.888589 -0.457097
vn -0.101551 -0.992909 0.061806
vn 0.095104 -0.993509 -0.062407
vn -0.000350 -0.999891 -0.014758
vn -0.000350 -0.999891 -0.014758
vn 0.050908 -0.986540 -0.155392
vn -0.082019 -0.996268 -0.026882
vn -0.038361 0.888589 -0.457097
vn -0.479410 0.872739 -0.092160
vn -0.093130 0.980722 -0.171787
vn -0.479410 0.872739 -0.092160
vn -0.403727 0.871072 0.279709
vn -0.093130 0.980722 -0.171787
vn 0.163228 -0.977170 -0.135997
vn 0.050908 -0.986540 -0.155392
vn -0.000350 -0.999891 -0.014758
vn 0.122312 -0.311067 -0.942484
vn 0.438407 -0.891206 -0.116409
vn 0.163228 -0.977170 -0.135997
vn -0.479410 0.872739 -0.092160
vn -0.468558 0.874683 0.124028
vn -0.403727 0.871072 0.279709
vn -0.222849 0.109604 0.968672
vn 0.028463 0.456019 0.889515
vn -0.278196 0.852821 0.441931
vn 0.122312 -0.311067 -0.942484
vn 0.807249 -0.559578 -0.187675
vn 0.438407 -0.891206 -0.116409
vn 0.807249 -0.559578 -0.187675
vn 0.512564 0.327956 -0.793551
vn 0.990046 0.026097 -0.138306
vn -0.854495 0.425475 0.298009
vn -0.827943 0.555452 0.077347
vn -0.881125 -0.470883 0.043447
vn -0.278196 0.852821 0.441931
vn -0.468558 0.874683 0.124028
vn -0.854495 0.425475 0.298009
vn 0.122312 -0.311067 -0.942484
vn 0.512564 0.327956 -0.793551
vn 0.807249 -0.559578 -0.187675
vn 0.122312 -0.311067 -0.942484
vn -0.158876 0.230951 -0.959906
vn 0.097728 0.343133 -0.934189
vn -0.241925 -0.928284 0.282421
vn -0.222849 0.109604 0.968672
vn -0.854495 0.425475 0.298009
vn -0.222849 0.109604 0.968672
vn -0.278196 0.852821 0.441931
vn -0.854495 0.425475 0.298009
vn -0.176247 0.033315 -0.983782
vn -0.703179 0.017424 -0.710799
vn -0.445497 0.573482 -0.687496
vn -0.777447 -0.626558 0.054779
vn -0.703179 0.017424 -0.710799
vn -0.303512 -0.844529 -0.441193
vn 0.577457 0.808149 0.115922
vn 0.738542 0.669117 0.082692
vn 0.934592 -0.355539 0.011382
vn 0.934592 -0.355539 0.011382
vn 0.738542 0.669117 0.082692
vn 0.787725 0.516531 0.335686
vn -0.703179 0.017424 -0.710799
vn -0.176247 0.033315 -0.983782
vn -0.303512 -0.844529 -0.441193
vn -0.176247 0.033315 -0.983782
vn 0.122312 -0.311067 -0.942484
vn -0.014850 -0.874856 -0.484155
vn 0.577457 0.808149 0.115922
vn 0.182760 0.975934 -0.118961
vn 0.390342 0.920533 -0.015903
vn 0.266574 0.963054 -0.038283
vn 0.390342 0.920533 -0.015903
vn 0.182760 0.975934 -0.118961
vn 0.934592 -0.355539 0.011382
vn 0.364558 -0.916266 -0.165996
vn 0.487622 -0.867956 -0.094220
vn -0.082019 -0.996268 -0.026882
vn 0.050908 -0.986540 -0.155392
vn 0.364558 -0.916266 -0.165996
vn -0.445497 0.573482 -0.687496
vn -0.659672 0.721453 -0.210566
vn -0.479410 0.872739 -0.092160
vn -0.958314 0.160789 -0.236182
vn -0.445497 0.573482 -0.687496
vn -0.703179 0.017424 -0.710799
vn 0.163228 -0.977170 -0.135997
vn 0.438407 -0.891206 -0.116409
vn 0.050908 -0.986540 -0.155392
vn 0.487622 -0.867956 -0.094220
vn 0.364558 -0.916266 -0.165996
vn 0.050908 -0.986540 -0.155392
vn -0.468558 0.874683 0.124028
vn -0.278196 0.852821 0.441931
vn -0.403727 0.871072 0.279709
vn -0.148490 0.862483 0.483811
vn -0.403727 0.871072 0.279709
vn -0.278196 0.852821 0.441931
vn -0.777447 -0.626558 0.054779
vn -0.101551 -0.992909 0.061806
vn -0.881125 -0.470883 0.043447
vn -0.303512 -0.844529 -0.441193
vn -0.101551 -0.992909 0.061806
vn -0.777447 -0.626558 0.054779
vn -0.036544 0.955940 0.291279
vn 0.049758 0.991572 0.119617
vn -0.403727 0.871072 0.279709
vn 0.390342 0.920533 -0.015903
vn 0.266574 0.963054 -0.038283
vn 0.239341 0.883098 0.403551
vn -0.038361 0.888589 -0.457097
vn -0.158876 0.230951 -0.959906
vn -0.248476 0.891206 -0.379490
vn -0.158876 0.230951 -0.959906
vn -0.445497 0.573482 -0.687496
vn -0.248476 0.891206 -0.379490
vn 0.535838 0.842096 0.061260
vn 0.390342 0.920533 -0.015903
vn 0.239341 0.883098 0.403551
vn 0.239341 0.883098 0.403551
vn 0.787725 0.516531 0.335686
vn 0.535838 0.842096 0.061260
vn -0.881125 -0.470883 0.043447
vn -0.231089 -0.969718 -0.079028
vn -0.826821 -0.561823 -0.026882
vn -0.881125 -0.470883 0.043447
vn -0.101551 -0.992909 0.061806
vn -0.231089 -0.969718 -0.079028
vn 0.512564 0.327956 -0.793551
vn 0.097728 0.343133 -0.934189
vn 0.110541 0.784029 -0.610803
vn 0.097728 0.343133 -0.934189
vn 0.512564 0.327956 -0.793551
vn 0.122312 -0.311067 -0.942484
vn 0.049758 0.991572 0.119617
vn 0.266574 0.963054 -0.038283
vn -0.093130 0.980722 -0.171787
vn -0.036544 0.955940 0.291279
vn 0.266574 0.963054 -0.038283
vn 0.049758 0.991572 0.119617
vn -0.977775 0.199568 0.064260
vn -0.479410 0.872739 -0.092160
vn -0.659672 0.721453 -0.210566
vn -0.958314 0.160789 -0.236182
vn -0.659672 0.721453 -0.210566
vn -0.445497 0.573482 -0.687496
vn 0.438407 -0.891206 -0.116409
vn 0.934592 -0.355539 0.011382
vn 0.487622 -0.867956 -0.094220
vn 0.050908 -0.986540 -0.155392
vn 0.438407 -0.891206 -0.116409
vn 0.487622 -0.867956 -0.094220
vn 0.239341 0.883098 0.403551
vn 0.266574 0.963054 -0.038283
vn -0.036544 0.955940 0.291279
vn 0.028463 0.456019 0.889515
vn 0.239341 0.883098 0.403551
vn -0.148490 0.862483 0.483811
vn -0.977775 0.199568 0.064260
vn -0.958314 0.160789 -0.236182
vn -0.777447 -0.626558 0.054779
vn -0.958314 0.160789 -0.236182
vn -0.977775 0.199568 0.064260
vn -0.659672 0.721453 -0.210566
vn -0.014850 -0.874856 -0.484155
vn 0.163228 -0.977170 -0.135997
vn 0.095104 -0.993509 -0.062407
vn 0.163228 -0.977170 -0.135997
vn -0.000350 -0.999891 -0.014758
vn 0.095104 -0.993509 -0.062407
vn -0.479410 0.872739 -0.092160
vn -0.827943 0.555452 0.077347
vn -0.468558 0.874683 0.124028
vn -0.827943 0.555452 0.077347
vn -0.854495 0.425475 0.298009
vn -0.468558 0.874683 0.124028
vn 0.239341 0.883098 0.403551
vn 0.764355 0.182288 0.618492
vn 0.787725 0.516531 0.335686
vn 0.787725 0.516531 0.335686
vn 0.764355 0.182288 0.618492
vn 0.934592 -0.355539 0.011382
vn -0.303512 -0.844529 -0.441193
vn -0.176247 0.033315 -0.983782
vn -0.014850 -0.874856 -0.484155
vn -0.101551 -0.992909 0.061806
vn -0.303512 -0.844529 -0.441193
vn -0.014850 -0.874856 -0.484155
vn 0.110541 0.784029 -0.610803
vn 0.365989 0.877710 -0.309318
vn 0.512564 0.327956 -0.793551
vn 0.365989 0.877710 -0.309318
vn 0.110541 0.784029 -0.610803
vn 0.182760 0.975934 -0.118961
vn -0.036544 0.955940 0.291279
vn -0.148490 0.862483 0.483811
vn 0.239341 0.883098 0.403551
vn -0.036544 0.955940 0.291279
vn -0.403727 0.871072 0.279709
vn -0.148490 0.862483 0.483811
vn -0.241925 -0.928284 0.282421
vn -0.129508 -0.878268 0.460297
vn -0.222849 0.109604 0.968672
vn -0.082019 -0.996268 -0.026882
vn -0.129508 -0.878268 0.460297
vn -0.241925 -0.928284 0.282421
vn 0.512564 0.327956 -0.793551
vn 0.365989 0.877710 -0.309318
vn 0.990046 0.026097 -0.138306
vn 0.182760 0.975934 -0.118961
vn 0.577457 0.808149 0.115922
vn 0.365989 0.877710 -0.309318
vn -0.241925 -0.928284 0.282421
vn -0.854495 0.425475 0.298009
vn -0.826821 -0.561823 -0.026882
vn -0.826821 -0.561823 -0.026882
vn -0.231089 -0.969718 -0.079028
vn -0.241925 -0.928284 0.282421
vn 0.990046 0.026097 -0.138306
vn 0.365989 0.877710 -0.309318
vn 0.577457 0.808149 0.115922
vn 0.577457 0.808149 0.115922
vn 0.934592 -0.355539 0.011382
vn 0.990046 0.026097 -0.138306
s off
g cube_NewUVs
usemtl cube_NewUVsSG
f 39//1 25//2 29//3
f 22//4 7//5 4//6
f 43//7 17//8 22//9
f 14//10 28//11 3//12
f 30//13 50//14 15//15
f 16//16 33//17 15//18
f 42//19 20//20 6//21
f 15//22 33//23 30//24
f 1//25 49//26 2//27
f 37//28 21//29 41//30
f 49//31 1//32 8//33
f 28//34 13//35 3//36
f 9//37 34//38 2//39
f 20//40 22//41 17//42
f 34//43 39//44 29//45
f 1//46 18//47 8//48
f 35//49 11//50 30//51
f 25//52 23//53 51//54
f 32//55 38//56 12//57
f 55//58 30//59 11//60
f 26//61 8//62 56//63
f 41//64 21//65 16//66
f 36//67 14//68 53//69
f 19//70 12//71 38//72
f 3//73 15//74 50//75
f 3//76 16//77 15//78
f 54//79 41//80 16//81
f 13//82 16//83 3//84
f 6//85 20//86 17//87
f 12//88 57//89 32//90
f 18//91 47//92 10//93
f 51//94 48//95 37//96
f 50//97 46//98 14//99
f 3//100 50//101 14//102
f 9//103 2//104 20//105
f 42//106 39//107 20//108
f 37//109 48//110 21//111
f 21//112 5//113 16//114
f 20//115 2//116 22//117
f 2//118 7//119 22//120
f 23//121 5//122 21//123
f 25//124 35//125 23//126
f 2//127 24//128 7//129
f 28//130 14//131 36//132
f 25//133 11//134 35//135
f 11//136 27//137 55//138
f 26//139 49//140 8//141
f 36//142 24//143 26//144
f 25//145 27//146 11//147
f 25//148 39//149 42//150
f 54//151 28//152 26//153
f 28//154 36//155 26//156
f 29//157 10//158 34//159
f 18//160 10//161 31//162
f 57//163 12//164 30//165
f 30//166 12//167 19//168
f 10//169 29//170 31//171
f 29//172 25//173 51//174
f 57//175 17//176 32//177
f 43//178 32//179 17//180
f 30//181 33//182 45//183
f 16//184 5//185 33//186
f 34//187 44//188 2//189
f 47//190 34//191 10//192
f 23//193 35//194 5//195
f 45//196 33//197 5//198
f 24//199 36//200 7//201
f 53//202 7//203 36//204
f 18//205 37//206 8//207
f 31//208 37//209 18//210
f 40//211 4//212 7//213
f 32//214 43//215 46//216
f 20//217 39//218 9//219
f 39//220 34//221 9//222
f 38//223 32//224 46//225
f 46//226 19//227 38//228
f 8//229 41//230 56//231
f 8//232 37//233 41//234
f 27//235 42//236 6//237
f 42//238 27//239 25//240
f 4//241 43//242 22//243
f 40//244 43//245 4//246
f 1//247 2//248 44//249
f 47//250 44//251 34//252
f 35//253 30//254 45//255
f 5//256 35//257 45//258
f 46//259 43//260 40//261
f 14//262 46//263 53//264
f 1//265 47//266 18//267
f 47//268 1//269 44//270
f 51//271 23//272 48//273
f 23//274 21//275 48//276
f 2//277 49//278 24//279
f 49//280 26//281 24//282
f 46//283 50//284 19//285
f 19//286 50//287 30//288
f 31//289 29//290 51//291
f 37//292 31//293 51//294
f 6//295 52//296 27//297
f 52//298 6//299 17//300
f 40//301 53//302 46//303
f 40//304 7//305 53//306
f 54//307 13//308 28//309
f 16//310 13//311 54//312
f 27//313 52//314 55//315
f 17//316 57//317 52//318
f 54//319 26//320 56//321
f 56//322 41//323 54//324
f 55//325 52//326 57//327
f 57//328 30//329 55//330
