# File produced by Open Asset Import Library (http://www.assimp.sf.net)
# (assimp v3.1.202510665)

mtllib Book_OBJ.mtl

# vertex positions
v 0.924268 0.015763 -1.162630
v -0.924268 0.015763 -1.162630
v -0.924268 0.056652 0.007113
v 0.924268 0.056652 0.007113
v 0.924268 0.024922 0.008222
v -0.924268 0.024922 0.008222
v -0.924268 -0.015966 -1.161521
v 0.924268 -0.015966 -1.161521
v 0.924268 0.055425 0.032474
v -0.924268 0.055425 0.032474
v -0.924268 -0.009157 1.201149
v 0.924268 -0.009157 1.201149
v 0.924268 -0.040857 1.199397
v -0.924268 -0.040857 1.199397
v -0.924268 0.023725 0.030722
v 0.924268 0.023725 0.030722
v 0.924268 0.021359 0.065819
v -0.924268 0.021359 0.065819
v -0.924268 0.021359 -0.028672
v 0.924268 0.021359 -0.028672
v 0.924268 -0.021359 -0.028672
v -0.924268 -0.021359 -0.028672
v -0.924268 -0.021359 0.065819
v 0.924268 -0.021359 0.065819
v 0.823561 0.156134 0.584804
v -0.823561 0.156134 0.584804
v -0.823561 0.084413 1.150803
v 0.823561 0.084413 1.150803
v 0.823561 -0.010146 1.145578
v -0.823561 -0.010146 1.145578
v -0.823561 0.021131 0.579579
v -0.818991 0.129773 0.018911
v -0.823561 0.052409 0.013580
v 0.823561 0.021131 0.579579
v 0.828131 0.129773 0.018911
v 0.823561 0.052409 0.013580
v 0.803030 0.174158 -0.565536
v -0.846841 0.174158 -0.565536
v -0.821163 0.130924 0.021062
v 0.828707 0.130924 0.021062
v 0.824935 0.047276 0.014572
v -0.824935 0.047276 0.014572
v -0.824935 0.027656 -0.546715
v -0.824935 0.108925 -1.111530
v -0.824935 0.008036 -1.108003
v 0.824935 0.027656 -0.546715
v 0.824935 0.108925 -1.111530
v 0.824935 0.008036 -1.108003
v 0.612906 0.181192 -0.487886
v 0.625961 0.139329 -0.994683
v -0.617630 0.139329 -0.994683
v -0.630684 0.181192 -0.487886
v 0.603350 0.169130 0.525474
v 0.632254 0.129070 0.022428
v -0.611337 0.129070 0.022428
v -0.640241 0.169130 0.525474
v 0.608265 0.111192 1.048501
v -0.635326 0.111192 1.048501

# UV coordinates
vt 0.000000 0.464329
vt 0.366661 0.464329
vt 0.366661 0.696492
vt 0.000000 0.696492
vt 0.973628 0.366665
vt 0.979925 0.366665
vt 0.979925 0.733326
vt 0.973628 0.733326
vt 0.963591 0.653969
vt 0.969888 0.653969
vt 0.969888 0.886132
vt 0.963590 0.886132
vt 0.371384 0.000003
vt 0.738045 0.000003
vt 0.738045 0.232166
vt 0.371384 0.232166
vt 0.953553 0.653969
vt 0.959850 0.653969
vt 0.959851 0.886132
vt 0.953553 0.886132
vt 0.993703 0.000003
vt 1.000000 0.000003
vt 1.000000 0.366665
vt 0.993703 0.366665
vt 0.000000 0.000003
vt 0.366661 0.000003
vt 0.366661 0.232166
vt 0.000000 0.232166
vt 0.983665 0.366665
vt 0.989963 0.366665
vt 0.989963 0.733326
vt 0.983665 0.733326
vt 0.742768 0.249437
vt 0.749066 0.249437
vt 0.749065 0.481600
vt 0.742768 0.481600
vt 0.958572 0.000003
vt 0.964869 0.000004
vt 0.964870 0.232166
vt 0.958573 0.232166
vt 0.983665 0.000003
vt 0.989963 0.000003
vt 0.000000 0.937540
vt 0.366661 0.937540
vt 0.366661 0.956283
vt 0.000000 0.956283
vt 0.702618 0.573762
vt 0.711091 0.573762
vt 0.711091 0.940423
vt 0.702618 0.940423
vt 0.908385 0.190547
vt 0.916858 0.190547
vt 0.916858 0.209289
vt 0.908385 0.209289
vt 0.331234 0.918798
vt 0.697895 0.918798
vt 0.697895 0.937540
vt 0.331234 0.937540
vt 0.908385 0.171804
vt 0.916858 0.171804
vt 0.973628 0.000003
vt 0.982101 0.000003
vt 0.982101 0.366665
vt 0.326710 0.696492
vt 0.326710 0.809657
vt 0.000000 0.809657
vt 0.953553 0.327259
vt 0.972338 0.327259
vt 0.972338 0.653969
vt 0.918422 0.328000
vt 0.945210 0.327259
vt 0.938748 0.439444
vt 0.923365 0.440330
vt 0.372800 0.348709
vt 0.699484 0.344595
vt 0.700900 0.457025
vt 0.374216 0.461139
vt 0.702618 0.233554
vt 0.729380 0.232163
vt 0.725372 0.345257
vt 0.706600 0.345922
vt 0.913403 0.000002
vt 0.928805 0.000456
vt 0.938419 0.327025
vt 0.923018 0.326571
vt 0.759437 0.249001
vt 0.774805 0.250112
vt 0.779579 0.362382
vt 0.752805 0.361244
vt 0.371384 0.236280
vt 0.698068 0.232166
vt 0.785971 0.248287
vt 0.804748 0.248797
vt 0.809690 0.361854
vt 0.782917 0.360684
vt 0.371384 0.693854
vt 0.698091 0.695172
vt 0.698545 0.807543
vt 0.371837 0.806225
vt 0.409062 0.463471
vt 0.736239 0.456333
vt 0.733692 0.573085
vt 0.406515 0.580223
vt 0.720006 0.573502
vt 0.736661 0.573127
vt 0.729310 0.900300
vt 0.712655 0.900674
vt 0.878273 0.116303
vt 0.907859 0.117676
vt 0.903117 0.226729
vt 0.883112 0.227599
vt 0.327255 0.809657
vt 0.327255 0.921058
vt 0.000000 0.921058
vt 0.878273 0.006062
vt 0.907264 0.000000
vt 0.907339 0.116780
vt 0.890681 0.116769
vt 0.938497 0.000003
vt 0.958521 0.000003
vt 0.958521 0.327259
vt 0.938497 0.327259
vt 0.858100 0.114422
vt 0.878049 0.116150
vt 0.877778 0.225305
vt 0.848160 0.225379
vt 0.331234 0.807397
vt 0.658490 0.807397
vt 0.658490 0.918798
vt 0.854253 0.001784
vt 0.870816 -0.000000
vt 0.882645 0.116179
vt 0.853179 0.113179
vt 0.371384 0.579522
vt 0.698574 0.586037
vt 0.700747 0.695171
vt 0.373557 0.688656
vt 0.851326 0.496896
vt 0.952217 0.495601
vt 0.949052 0.742250
vt 0.848160 0.743545
vt 0.749823 0.002870
vt 0.850042 0.000002
vt 0.842987 0.246570
vt 0.742768 0.249438
vt 0.737749 0.494063
vt 0.842130 0.494550
vt 0.843282 0.741217
vt 0.738901 0.740729
vt 0.813029 0.247426
vt 0.914832 0.249345
vt 0.919481 0.495970
vt 0.817679 0.494051

# vertex normals
vn 0.000000 0.999289 -0.037709
vn 0.000000 0.034857 0.999392
vn -1.000000 0.000000 0.000000
vn 0.000000 -0.999289 0.037709
vn 1.000000 0.000000 0.000000
vn 0.000000 -0.034857 -0.999392
vn 0.000000 0.042996 0.999075
vn 0.000000 -0.042996 -0.999075
vn 0.000000 -0.056009 -0.998430
vn 0.000000 0.056009 0.998430
vn 0.000000 0.042849 0.999082
vn 0.000000 -0.055216 0.998474
vn -0.999997 0.000243 -0.002428
vn 0.000000 -0.998493 -0.054885
vn 0.000000 0.055216 -0.998474
vn 0.999997 -0.000243 0.002428
vn 0.000000 0.123027 -0.992403
vn 0.000000 0.303299 0.952896
vn 0.000000 -0.055392 0.998465
vn -0.999993 -0.000121 -0.003764
vn 0.000000 -0.131960 0.991255
vn 0.999930 0.000850 -0.011780
vn 0.000000 0.054512 -0.998513
vn 0.999993 0.000121 0.003764
vn -0.999930 -0.000850 0.011780
vn 0.000000 0.094634 -0.995512
vn 0.000000 0.996604 -0.082343
vn 0.000000 0.996845 -0.079368
vn 0.000000 0.993922 0.110083
vn 0.000000 0.994825 0.101601

# Mesh
g book:Mesh
usemtl initialShadingGroup
f 1/1/1 2/2/1 3/3/1
f 1/1/1 3/3/1 4/4/1
f 5/5/2 4/6/2 3/7/2
f 5/5/2 3/7/2 6/8/2
f 6/9/3 3/10/3 2/11/3
f 6/9/3 2/11/3 7/12/3
f 7/13/4 8/14/4 5/15/4
f 7/13/4 5/15/4 6/16/4
f 8/17/5 1/18/5 4/19/5
f 8/17/5 4/19/5 5/20/5
f 7/21/6 2/22/6 1/23/6
f 7/21/6 1/23/6 8/24/6
f 9/25/7 10/26/7 11/27/7
f 9/25/7 11/27/7 12/28/7
f 13/29/2 12/30/2 11/31/2
f 13/29/2 11/31/2 14/32/2
f 14/33/3 11/34/3 10/35/3
f 14/33/3 10/35/3 15/36/3
f 15/28/8 16/27/8 13/2/8
f 15/28/8 13/2/8 14/1/8
f 16/37/5 9/38/5 12/39/5
f 16/37/5 12/39/5 13/40/5
f 15/41/6 10/42/6 9/30/6
f 15/41/6 9/30/6 16/29/6
f 17/43/9 18/44/9 19/45/9
f 17/43/9 19/45/9 20/46/9
f 21/47/2 20/48/2 19/49/2
f 21/47/2 19/49/2 22/50/2
f 22/51/5 19/52/5 18/53/5
f 22/51/5 18/53/5 23/54/5
f 23/55/10 24/56/10 21/57/10
f 23/55/10 21/57/10 22/58/10
f 24/59/3 17/60/3 20/52/3
f 24/59/3 20/52/3 21/51/3
f 23/61/6 18/62/6 17/63/6
f 23/61/6 17/63/6 24/5/6
f 25/4/11 26/64/11 27/65/11
f 25/4/11 27/65/11 28/66/11
f 29/67/12 28/68/12 27/69/12
f 29/67/12 27/69/12 30/17/12
f 31/70/13 26/71/13 32/72/13
f 31/70/13 32/72/13 33/73/13
f 31/74/14 34/75/14 29/76/14
f 31/74/14 29/76/14 30/77/14
f 34/78/5 25/79/5 28/80/5
f 34/78/5 28/80/5 29/81/5
f 33/82/15 32/83/15 35/84/15
f 33/82/15 35/84/15 36/85/15
f 36/86/16 35/87/16 25/88/16
f 36/86/16 25/88/16 34/89/16
f 33/90/14 36/91/14 34/75/14
f 33/90/14 34/75/14 31/74/14
f 30/92/3 27/93/3 26/94/3
f 30/92/3 26/94/3 31/95/3
f 35/96/17 32/97/17 26/98/17
f 35/96/17 26/98/17 25/99/17
f 37/100/18 38/101/18 39/102/18
f 37/100/18 39/102/18 40/103/18
f 41/104/19 40/105/19 39/106/19
f 41/104/19 39/106/19 42/107/19
f 43/108/20 38/109/20 44/110/20
f 43/108/20 44/110/20 45/111/20
f 43/66/21 46/112/21 41/113/21
f 43/66/21 41/113/21 42/114/21
f 46/115/22 37/116/22 40/117/22
f 46/115/22 40/117/22 41/118/22
f 45/119/23 44/120/23 47/121/23
f 45/119/23 47/121/23 48/122/23
f 48/123/24 47/124/24 37/125/24
f 48/123/24 37/125/24 46/126/24
f 45/127/21 48/128/21 46/129/21
f 45/127/21 46/129/21 43/55/21
f 42/130/25 39/131/25 38/132/25
f 42/130/25 38/132/25 43/133/25
f 47/134/26 44/135/26 38/136/26
f 47/134/26 38/136/26 37/137/26
f 49/138/27 50/139/27 51/140/27
f 49/138/27 51/140/27 52/141/27
f 53/142/28 54/143/28 55/144/28
f 53/142/28 55/144/28 56/145/28
f 57/146/29 53/147/29 56/148/29
f 57/146/29 56/148/29 58/149/29
f 54/150/30 49/151/30 52/152/30
f 54/150/30 52/152/30 55/153/30
